Coordinates
nRows=22
nColumns=24

# SIMM Motion File Header:
name Coordinates
datacolumns 24
datarows 22
otherdata 1
range 7.48333333 7.83333333

Units are S.I. units (second, meters, Newtons, ...)
Angles are in degrees.

endheader
time	pelvis_tilt	pelvis_list	pelvis_rotation	pelvis_tx	pelvis_ty	pelvis_tz	hip_flexion_r	hip_adduction_r	hip_rotation_r	knee_angle_r	ankle_angle_r	subtalar_angle_r	mtp_angle_r	hip_flexion_l	hip_adduction_l	hip_rotation_l	knee_angle_l	ankle_angle_l	subtalar_angle_l	mtp_angle_l	lumbar_extension	lumbar_bending	lumbar_rotation
      7.48333333	      6.08342169	     -0.21697092	     -5.04743226	      0.61347896	      1.01614881	      0.02689417	    -15.67355514	     -4.26667610	     -2.81523300	    -36.25280122	     10.40844350	     13.09693606	      0.00000000	     16.51993560	     -1.19406868	     -5.84179985	    -17.65400871	     -2.86371210	      4.62059671	      0.00000000	    -17.22911084	     -3.33283127	      3.55185897
      7.50000000	      6.21100257	      0.36881147	     -5.01386776	      0.61492934	      1.01784625	      0.02395451	    -13.14190908	     -5.40435802	     -3.29362671	    -42.13181755	      6.02939582	     11.83143195	      0.00000000	     15.55655103	     -0.37603943	     -6.00879158	    -18.42762418	     -1.99249842	      4.70697883	      0.00000000	    -17.12581642	     -4.18259947	      3.20666467
      7.51666667	      6.34048411	      0.56219645	     -5.01147590	      0.61568358	      1.01994950	      0.02089438	    -10.40043448	     -6.04387665	     -3.41499150	    -47.62655909	      0.78099918	      9.49093197	      0.00000000	     14.44146097	      0.04676698	     -6.19720560	    -18.95062272	     -0.92288017	      4.96458540	      0.00000000	    -17.20841574	     -4.45895726	      2.85953329
      7.53333333	      6.22682313	      1.07402122	     -5.13773418	      0.61552734	      1.02176386	      0.01825462	     -7.17194129	     -6.92974988	     -3.36807628	    -52.82095684	     -4.00065645	      6.74720551	      0.00000000	     13.35903111	      0.78019301	     -6.50146322	    -18.85915747	     -0.06953658	      5.11538118	      0.00000000	    -17.07838119	     -5.08450036	      2.65640678
      7.55000000	      6.32999393	      1.24629635	     -5.12732783	      0.61538579	      1.02466251	      0.01530652	     -4.41159282	     -7.29278115	     -3.25228782	    -57.08435667	     -7.54006074	      3.81584723	      0.00000000	     11.72798350	      1.30062713	     -6.40894735	    -18.17304912	      0.63802340	      5.01921969	      0.00000000	    -17.16324238	     -5.23060367	      2.26553612
      7.56666667	      6.28172689	      1.12078084	     -4.89458088	      0.61447226	      1.02732989	      0.01297754	     -1.61610451	     -7.08680370	     -3.20724462	    -60.82234191	     -8.92940386	      1.08033744	      0.00000000	     10.40541556	      1.42117339	     -6.24319645	    -17.74587104	      1.48577679	      5.35456874	      0.00000000	    -17.22205609	     -4.98261490	      1.88015792
      7.58333333	      6.38403451	      0.67785406	     -4.51440661	      0.61399846	      1.03079464	      0.01100018	      0.66739993	     -6.35475180	     -3.25018698	    -63.67391816	     -8.55041725	     -1.40911006	      0.00000000	      8.86155910	      1.12412302	     -6.36274379	    -17.31489267	      2.41147978	      6.45634248	      0.00000000	    -17.32676763	     -4.45048721	      1.16509560
      7.60000000	      6.30414437	      0.31553256	     -4.04373991	      0.61291660	      1.03367967	      0.00838735	      3.11799473	     -5.75034309	     -3.45823673	    -66.02434580	     -7.10419042	     -3.13393139	      0.00000000	      7.45789016	      1.00452151	     -6.10439883	    -16.60248215	      3.07030027	      6.93000419	      0.00000000	    -17.31887366	     -3.80158458	      0.66976489
      7.61666667	      6.42814153	      0.06016695	     -3.54402059	      0.61145160	      1.03678023	      0.00618267	      5.23410088	     -5.28371752	     -3.78750175	    -67.60999749	     -5.39756614	     -4.27562147	      0.00000000	      5.67531497	      1.00201610	     -5.81503339	    -15.45786636	      3.47633533	      7.26396529	      0.00000000	    -17.54673656	     -3.39659889	     -0.18027306
      7.63333333	      6.23046546	     -0.26983061	     -2.96924606	      0.60984725	      1.03895534	      0.00417502	      7.63253617	     -4.71851679	     -4.18477253	    -68.56670117	     -3.88501405	     -4.97093976	      0.00000000	      4.34744347	      0.83636239	     -5.58781612	    -14.52178915	      3.98224155	      7.75483208	      0.00000000	    -17.54661666	     -2.76855043	     -0.91739590
      7.65000000	      6.16626438	     -0.57864924	     -2.31849449	      0.60800203	      1.04104802	      0.00187437	      9.74915962	     -4.25592262	     -4.64023068	    -68.74524107	     -2.61173176	     -5.03805030	      0.00000000	      2.75856757	      0.72036684	     -5.15371267	    -13.28649296	      4.32775065	      8.03671091	      0.00000000	    -17.60185548	     -2.15022698	     -1.89336304
      7.66666667	      6.02277001	     -0.83856552	     -2.00464010	      0.60497335	      1.04242044	      0.00048530	     12.03368379	     -3.70196625	     -4.59631282	    -68.38369084	     -1.56355216	     -4.78340562	      0.00000000	      1.35157744	      0.57054658	     -5.01466551	    -12.16044296	      4.69242921	      8.32346887	      0.00000000	    -17.72081566	     -1.66007290	     -2.21948918
      7.68333333	      5.84377265	     -1.22029649	     -1.26146678	      0.60337533	      1.04337689	     -0.00130772	     13.89313480	     -3.25155057	     -5.14866123	    -67.09828854	     -0.46060895	     -3.79832462	      0.00000000	      0.15141504	      0.23713049	     -4.58066423	    -11.52716523	      5.42373963	      8.89380763	      0.00000000	    -17.55980078	     -0.95158544	     -2.96839583
      7.70000000	      5.69362111	     -1.55074209	     -0.94708871	      0.60131944	      1.04406119	     -0.00245685	     15.65094998	     -2.72181717	     -5.15754305	    -65.12604848	      0.47508034	     -2.84943861	      0.00000000	     -1.25020802	     -0.05475187	     -4.52849182	    -10.51715995	      5.96302197	      9.41908368	      0.00000000	    -17.52016765	     -0.43107238	     -3.49237994
      7.71666667	      5.49924133	     -1.67081130	     -0.52842141	      0.59868826	      1.04401527	     -0.00337709	     17.28429431	     -2.46631213	     -5.24499445	    -62.52435777	      1.31394147	     -2.00755164	      0.00000000	     -2.34612168	     -0.17800052	     -4.28247152	     -9.92113396	      6.63369920	      9.93825402	      0.00000000	    -17.57976789	     -0.09627465	     -3.86530624
      7.73333333	      5.26575286	     -1.77695886	     -0.42757459	      0.59688574	      1.04367607	     -0.00431871	     18.60753990	     -2.21653845	     -5.13052775	    -59.05344682	      1.88568653	     -1.55994295	      0.00000000	     -3.66708096	     -0.22021650	     -4.13819958	     -8.92146933	      7.13368431	     10.14169795	      0.00000000	    -17.45818727	      0.21604116	     -4.07625550
      7.75000000	      5.23713936	     -1.79436345	     -0.23458988	      0.59436840	      1.04316777	     -0.00533173	     19.44153237	     -2.11257215	     -5.18237266	    -54.83115387	      2.13073327	     -1.72223832	      0.00000000	     -4.89916543	     -0.19165976	     -3.91177149	     -8.47209777	      7.82423145	     10.33528236	      0.00000000	    -17.68858829	      0.44256960	     -4.41050587
      7.76666667	      4.73891149	     -1.89032128	     -0.26920565	      0.59199336	      1.04123292	     -0.00489743	     20.52682103	     -1.79808162	     -5.21596446	    -49.96652360	      1.98591706	     -2.68449734	      0.00000000	     -5.64548009	     -0.30191844	     -3.94118943	     -8.06816256	      8.66353550	     10.57951923	      0.00000000	    -17.38855310	      0.59757922	     -4.56532692
      7.78333333	      4.82782040	     -1.99604709	     -0.28183311	      0.58989512	      1.04005772	     -0.00484501	     20.51503309	     -1.46623867	     -5.29909826	    -44.16780025	      1.49437978	     -4.24255134	      0.00000000	     -7.02210284	     -0.40362915	     -4.30985506	     -7.69957769	      9.52992884	     11.16968631	      0.00000000	    -17.74250330	      0.84224958	     -4.36986572
      7.80000000	      4.66586272	     -1.74460105	     -0.31970859	      0.58802522	      1.03758512	     -0.00488332	     20.64471164	     -1.53927589	     -5.36857643	    -38.14439719	      0.91936270	     -5.81120117	      0.00000000	     -8.17282829	     -0.07880101	     -4.36306390	     -7.24703314	     10.37590744	     11.26143301	      0.00000000	    -17.78549683	      0.72763461	     -4.63824103
      7.81666667	      4.71140100	     -1.38753108	     -0.58025081	      0.58670261	      1.03514967	     -0.00467115	     20.25892793	     -1.65750343	     -5.31766698	    -31.61890911	      0.20314627	     -7.05054701	      0.00000000	     -9.71465524	      0.39975379	     -4.68745011	     -6.53062089	     11.09441165	     11.41089145	      0.00000000	    -17.95704998	      0.45899871	     -4.54778171
      7.83333333	      4.53955092	     -1.06905974	     -0.51794485	      0.58512673	      1.03184958	     -0.00413125	     19.93880850	     -1.76462967	     -5.50039442	    -24.93383773	     -0.50669558	     -7.77357096	      0.00000000	    -10.83191523	      0.71787519	     -4.64152343	     -6.14027245	     12.01660060	     11.55986119	      0.00000000	    -17.96008638	      0.20708983	     -4.67435335
